<svg xmlns="http://www.w3.org/2000/svg" width="75" height="75" viewBox="0 0 512 512" style="enable-background:new 0 0 512 512" xml:space="preserve"><path d="M272.066 287.066c79.145 0 143.533-64.389 143.533-143.533S351.211 0 272.066 0 128.533 64.389 128.533 143.533s64.389 143.533 143.533 143.533zm0-257.066C334.669 30 385.6 80.931 385.6 143.533s-50.931 113.533-113.533 113.533-113.533-50.931-113.533-113.533S209.464 30 272.066 30z" fill="#12BEC8" data-original="#12BEC8"/><path d="M264.033 158.533H280.1c5.019 0 9.101 4.082 9.101 9.101 0 5.018-4.082 9.1-9.101 9.1H256c-8.284 0-15 6.716-15 15s6.716 15 15 15h1.066v1.066c0 8.284 6.716 15 15 15s15-6.716 15-15v-1.7c18.246-3.297 32.134-19.284 32.134-38.466 0-21.561-17.54-39.101-39.101-39.101h-16.066c-5.018 0-9.1-4.082-9.1-9.1 0-5.019 4.082-9.101 9.1-9.101h24.101c8.284 0 15-6.716 15-15s-6.716-15-15-15h-1.067v-1.066c0-8.284-6.716-15-15-15s-15 6.716-15 15v1.7c-18.245 3.297-32.133 19.285-32.133 38.467 0 21.56 17.54 39.1 39.099 39.1zM363.372 329.287l-20.243 20.245c-7.305-16.589-23.903-28.198-43.162-28.198H194.963c-40.896 0-57.81 33.294-61.42 48.2h-23.21V352.4c0-8.284-6.716-15-15-15H15c-8.284 0-15 6.716-15 15V497c0 8.284 6.716 15 15 15h80.333c8.284 0 15-6.716 15-15v-17.133h206.844c18.652 0 36.193-7.266 49.393-20.461l108.903-108.907c5.858-5.857 5.853-15.361 0-21.213-30.906-30.905-81.193-30.905-112.101.001zM80.334 482H30V367.4h50.333V482zm265.025-43.809c-7.532 7.529-17.541 11.675-28.182 11.675H110.334v-50.333h36.43c8.284 0 15-6.716 15-15 0-18.348 14.837-33.2 33.2-33.2h105.004c9.447 0 17.133 7.686 17.133 17.133 0 14.014-12.927 17.063-16.836 17.131h-.021l-.276.002h-54.855c-8.284 0-15 6.716-15 15s6.716 15 15 15h54.861c12.576 0 24.407-4.899 33.32-13.803l51.293-51.298c15.512-15.511 38.88-18.498 57.417-8.956zM471.571 92.684l32.134-16.067c7.41-3.704 10.413-12.714 6.708-20.124S497.7 46.08 490.289 49.784l-32.134 16.067c-7.41 3.704-10.413 12.714-6.708 20.124 3.719 7.438 12.743 10.397 20.124 6.709zM503.705 210.45l-32.134-16.067c-7.406-3.701-16.419-.701-20.124 6.709s-.702 16.42 6.708 20.124l32.134 16.067c7.4 3.698 16.414.71 20.124-6.709 3.705-7.41.702-16.42-6.708-20.124zM40.428 76.616l32.134 16.067c7.381 3.689 16.405.73 20.124-6.709 3.705-7.41.702-16.42-6.708-20.124L53.844 49.783c-7.411-3.704-16.419-.701-20.124 6.709s-.702 16.42 6.708 20.124zM53.844 237.283l32.134-16.067c7.41-3.704 10.413-12.714 6.708-20.124s-12.718-10.41-20.124-6.709L40.428 210.45c-7.41 3.704-10.413 12.714-6.708 20.124 3.71 7.42 12.724 10.408 20.124 6.709z" fill="#12BEC8" data-original="#12BEC8"/></svg>